<?xml version="1.0" encoding="UTF-8" standalone="no"?>
<!DOCTYPE svg PUBLIC "-//W3C//DTD SVG 1.1//EN"
 "http://www.w3.org/Graphics/SVG/1.1/DTD/svg11.dtd">
<!-- Generated by graphviz version 2.47.0 (20210316.0004)
 -->
<!-- Title: dependencies Pages: 1 -->
<svg width="980pt" height="284pt"
 viewBox="0.00 0.00 980.00 284.00" xmlns="http://www.w3.org/2000/svg" xmlns:xlink="http://www.w3.org/1999/xlink">
<g id="graph0" class="graph" transform="scale(1 1) rotate(0) translate(4 280)">
<title>dependencies</title>
<polygon fill="white" stroke="transparent" points="-4,4 -4,-280 976,-280 976,4 -4,4"/>
<text text-anchor="start" x="465.01" y="-42.4" font-family="Times-12" font-weight="bold" font-size="14.00">Legend</text>
<polygon fill="#ffffb3" stroke="transparent" points="252,-10 252,-30 272,-30 272,-10 252,-10"/>
<text text-anchor="start" x="275.63" y="-15.4" font-family="Times-12" font-size="14.00"> &#160;Declarations</text>
<polygon fill="#8dd3c7" stroke="transparent" points="365,-10 365,-30 385,-30 385,-10 365,-10"/>
<text text-anchor="start" x="388.73" y="-15.4" font-family="Times-12" font-size="14.00"> &#160;Module</text>
<polygon fill="#80b1d3" stroke="transparent" points="451,-10 451,-30 471,-30 471,-10 451,-10"/>
<text text-anchor="start" x="474.78" y="-15.4" font-family="Times-12" font-size="14.00"> &#160;Bootstrap</text>
<polygon fill="#fdb462" stroke="transparent" points="548,-10 548,-30 568,-30 568,-10 548,-10"/>
<text text-anchor="start" x="571.67" y="-15.4" font-family="Times-12" font-size="14.00"> &#160;Providers</text>
<polygon fill="#fb8072" stroke="transparent" points="644,-10 644,-30 664,-30 664,-10 644,-10"/>
<text text-anchor="start" x="667.73" y="-15.4" font-family="Times-12" font-size="14.00"> &#160;Exports</text>
<g id="clust1" class="cluster">
<title>cluster_AuthModule</title>
<polygon fill="none" stroke="black" stroke-dasharray="1,5" points="8,-70 8,-268 964,-268 964,-70 8,-70"/>
</g>
<g id="clust4" class="cluster">
<title>cluster_AuthModule_exports</title>
<polygon fill="none" stroke="black" points="320,-208 320,-260 552,-260 552,-208 320,-208"/>
</g>
<g id="clust6" class="cluster">
<title>cluster_AuthModule_providers</title>
<polygon fill="none" stroke="black" points="378,-78 378,-130 956,-130 956,-78 378,-78"/>
</g>
<g id="clust3" class="cluster">
<title>cluster_AuthModule_imports</title>
<polygon fill="none" stroke="black" points="16,-78 16,-130 370,-130 370,-78 16,-78"/>
</g>
<!-- ErrorsModule -->
<g id="node1" class="node">
<title>ErrorsModule</title>
<polygon fill="#8dd3c7" stroke="black" points="362.03,-122 359.03,-126 338.03,-126 335.03,-122 267.97,-122 267.97,-86 362.03,-86 362.03,-122"/>
<text text-anchor="middle" x="315" y="-99.8" font-family="Times,serif" font-size="14.00">ErrorsModule</text>
</g>
<!-- AuthModule -->
<g id="node4" class="node">
<title>AuthModule</title>
<polygon fill="#8dd3c7" stroke="black" points="483.55,-187 480.55,-191 459.55,-191 456.55,-187 396.45,-187 396.45,-151 483.55,-151 483.55,-187"/>
<text text-anchor="middle" x="440" y="-164.8" font-family="Times,serif" font-size="14.00">AuthModule</text>
</g>
<!-- ErrorsModule&#45;&gt;AuthModule -->
<g id="edge1" class="edge">
<title>ErrorsModule&#45;&gt;AuthModule</title>
<path fill="none" stroke="black" d="M344.9,-122.03C344.9,-138.4 344.9,-160 344.9,-160 344.9,-160 386.35,-160 386.35,-160"/>
<polygon fill="black" stroke="black" points="386.35,-163.5 396.35,-160 386.35,-156.5 386.35,-163.5"/>
</g>
<!-- MyMailerModule -->
<g id="node2" class="node">
<title>MyMailerModule</title>
<polygon fill="#8dd3c7" stroke="black" points="250.31,-122 247.31,-126 226.31,-126 223.31,-122 133.69,-122 133.69,-86 250.31,-86 250.31,-122"/>
<text text-anchor="middle" x="192" y="-99.8" font-family="Times,serif" font-size="14.00">MyMailerModule</text>
</g>
<!-- MyMailerModule&#45;&gt;AuthModule -->
<g id="edge2" class="edge">
<title>MyMailerModule&#45;&gt;AuthModule</title>
<path fill="none" stroke="black" d="M192,-122.11C192,-141.34 192,-169 192,-169 192,-169 386.23,-169 386.23,-169"/>
<polygon fill="black" stroke="black" points="386.23,-172.5 396.23,-169 386.23,-165.5 386.23,-172.5"/>
</g>
<!-- UsersModule -->
<g id="node3" class="node">
<title>UsersModule</title>
<polygon fill="#8dd3c7" stroke="black" points="115.92,-122 112.92,-126 91.92,-126 88.92,-122 24.08,-122 24.08,-86 115.92,-86 115.92,-122"/>
<text text-anchor="middle" x="70" y="-99.8" font-family="Times,serif" font-size="14.00">UsersModule</text>
</g>
<!-- UsersModule&#45;&gt;AuthModule -->
<g id="edge3" class="edge">
<title>UsersModule&#45;&gt;AuthModule</title>
<path fill="none" stroke="black" d="M70,-122.29C70,-144.21 70,-178 70,-178 70,-178 386.1,-178 386.1,-178"/>
<polygon fill="black" stroke="black" points="386.1,-181.5 396.1,-178 386.1,-174.5 386.1,-181.5"/>
</g>
<!-- AuthService  -->
<g id="node5" class="node">
<title>AuthService </title>
<polygon fill="#fb8072" stroke="black" points="543.98,-252 454.02,-252 454.02,-216 543.98,-216 543.98,-252"/>
<text text-anchor="middle" x="499" y="-229.8" font-family="Times,serif" font-size="14.00">AuthService </text>
</g>
<!-- AuthModule&#45;&gt;AuthService  -->
<g id="edge4" class="edge">
<title>AuthModule&#45;&gt;AuthService </title>
<path fill="none" stroke="black" stroke-dasharray="5,2" d="M469.02,-187.11C469.02,-187.11 469.02,-205.99 469.02,-205.99"/>
<polygon fill="black" stroke="black" points="465.52,-205.99 469.02,-215.99 472.52,-205.99 465.52,-205.99"/>
</g>
<!-- JwtAuthService  -->
<g id="node6" class="node">
<title>JwtAuthService </title>
<polygon fill="#fb8072" stroke="black" points="436.42,-252 327.58,-252 327.58,-216 436.42,-216 436.42,-252"/>
<text text-anchor="middle" x="382" y="-229.8" font-family="Times,serif" font-size="14.00">JwtAuthService </text>
</g>
<!-- AuthModule&#45;&gt;JwtAuthService  -->
<g id="edge5" class="edge">
<title>AuthModule&#45;&gt;JwtAuthService </title>
<path fill="none" stroke="black" stroke-dasharray="5,2" d="M416.34,-187.11C416.34,-187.11 416.34,-205.99 416.34,-205.99"/>
<polygon fill="black" stroke="black" points="412.84,-205.99 416.34,-215.99 419.84,-205.99 412.84,-205.99"/>
</g>
<!-- AuthService -->
<g id="node7" class="node">
<title>AuthService</title>
<ellipse fill="#fdb462" stroke="black" cx="889" cy="-104" rx="59.11" ry="18"/>
<text text-anchor="middle" x="889" y="-99.8" font-family="Times,serif" font-size="14.00">AuthService</text>
</g>
<!-- AuthService&#45;&gt;AuthModule -->
<g id="edge6" class="edge">
<title>AuthService&#45;&gt;AuthModule</title>
<path fill="none" stroke="black" d="M889,-122.29C889,-144.21 889,-178 889,-178 889,-178 493.87,-178 493.87,-178"/>
<polygon fill="black" stroke="black" points="493.87,-174.5 483.87,-178 493.87,-181.5 493.87,-174.5"/>
</g>
<!-- JwtAuthService -->
<g id="node8" class="node">
<title>JwtAuthService</title>
<ellipse fill="#fdb462" stroke="black" cx="739" cy="-104" rx="72.93" ry="18"/>
<text text-anchor="middle" x="739" y="-99.8" font-family="Times,serif" font-size="14.00">JwtAuthService</text>
</g>
<!-- JwtAuthService&#45;&gt;AuthModule -->
<g id="edge7" class="edge">
<title>JwtAuthService&#45;&gt;AuthModule</title>
<path fill="none" stroke="black" d="M739,-122.11C739,-141.34 739,-169 739,-169 739,-169 493.8,-169 493.8,-169"/>
<polygon fill="black" stroke="black" points="493.8,-165.5 483.8,-169 493.8,-172.5 493.8,-165.5"/>
</g>
<!-- OtpRepository -->
<g id="node9" class="node">
<title>OtpRepository</title>
<ellipse fill="#fdb462" stroke="black" cx="580" cy="-104" rx="67.8" ry="18"/>
<text text-anchor="middle" x="580" y="-99.8" font-family="Times,serif" font-size="14.00">OtpRepository</text>
</g>
<!-- OtpRepository&#45;&gt;AuthModule -->
<g id="edge8" class="edge">
<title>OtpRepository&#45;&gt;AuthModule</title>
<path fill="none" stroke="black" d="M527.92,-115.6C527.92,-132.01 527.92,-160 527.92,-160 527.92,-160 493.7,-160 493.7,-160"/>
<polygon fill="black" stroke="black" points="493.7,-156.5 483.7,-160 493.7,-163.5 493.7,-156.5"/>
</g>
<!-- OtpService -->
<g id="node10" class="node">
<title>OtpService</title>
<ellipse fill="#fdb462" stroke="black" cx="440" cy="-104" rx="54.45" ry="18"/>
<text text-anchor="middle" x="440" y="-99.8" font-family="Times,serif" font-size="14.00">OtpService</text>
</g>
<!-- OtpService&#45;&gt;AuthModule -->
<g id="edge9" class="edge">
<title>OtpService&#45;&gt;AuthModule</title>
<path fill="none" stroke="black" d="M440,-122.11C440,-122.11 440,-140.99 440,-140.99"/>
<polygon fill="black" stroke="black" points="436.5,-140.99 440,-150.99 443.5,-140.99 436.5,-140.99"/>
</g>
</g>
</svg>
