<?xml version="1.0" encoding="UTF-8" standalone="no"?>
<!DOCTYPE svg PUBLIC "-//W3C//DTD SVG 1.1//EN"
 "http://www.w3.org/Graphics/SVG/1.1/DTD/svg11.dtd">
<!-- Generated by graphviz version 2.47.0 (20210316.0004)
 -->
<!-- Title: dependencies Pages: 1 -->
<svg width="3156pt" height="363pt"
 viewBox="0.00 0.00 3156.00 363.00" xmlns="http://www.w3.org/2000/svg" xmlns:xlink="http://www.w3.org/1999/xlink">
<g id="graph0" class="graph" transform="scale(1 1) rotate(0) translate(4 359)">
<title>dependencies</title>
<polygon fill="white" stroke="transparent" points="-4,4 -4,-359 3152,-359 3152,4 -4,4"/>
<text text-anchor="start" x="1553.01" y="-42.4" font-family="Times-12" font-weight="bold" font-size="14.00">Legend</text>
<polygon fill="#ffffb3" stroke="transparent" points="1340,-10 1340,-30 1360,-30 1360,-10 1340,-10"/>
<text text-anchor="start" x="1363.63" y="-15.4" font-family="Times-12" font-size="14.00"> &#160;Declarations</text>
<polygon fill="#8dd3c7" stroke="transparent" points="1453,-10 1453,-30 1473,-30 1473,-10 1453,-10"/>
<text text-anchor="start" x="1476.73" y="-15.4" font-family="Times-12" font-size="14.00"> &#160;Module</text>
<polygon fill="#80b1d3" stroke="transparent" points="1539,-10 1539,-30 1559,-30 1559,-10 1539,-10"/>
<text text-anchor="start" x="1562.78" y="-15.4" font-family="Times-12" font-size="14.00"> &#160;Bootstrap</text>
<polygon fill="#fdb462" stroke="transparent" points="1636,-10 1636,-30 1656,-30 1656,-10 1636,-10"/>
<text text-anchor="start" x="1659.67" y="-15.4" font-family="Times-12" font-size="14.00"> &#160;Providers</text>
<polygon fill="#fb8072" stroke="transparent" points="1732,-10 1732,-30 1752,-30 1752,-10 1732,-10"/>
<text text-anchor="start" x="1755.73" y="-15.4" font-family="Times-12" font-size="14.00"> &#160;Exports</text>
<g id="clust1" class="cluster">
<title>cluster_AppModule</title>
<polygon fill="none" stroke="black" stroke-dasharray="1,5" points="990,-146 990,-347 1364,-347 1364,-146 990,-146"/>
</g>
<g id="clust3" class="cluster">
<title>cluster_AppModule_imports</title>
<polygon fill="none" stroke="black" points="1136,-154 1136,-282 1356,-282 1356,-154 1136,-154"/>
</g>
<g id="clust6" class="cluster">
<title>cluster_AppModule_providers</title>
<polygon fill="none" stroke="black" points="998,-230 998,-282 1128,-282 1128,-230 998,-230"/>
</g>
<g id="clust7" class="cluster">
<title>cluster_AuthModule</title>
<polygon fill="none" stroke="black" stroke-dasharray="1,5" points="8,-146 8,-214 982,-214 982,-146 8,-146"/>
</g>
<g id="clust9" class="cluster">
<title>cluster_AuthModule_imports</title>
<polygon fill="none" stroke="black" points="842,-154 842,-206 974,-206 974,-154 842,-154"/>
</g>
<g id="clust10" class="cluster">
<title>cluster_AuthModule_exports</title>
<polygon fill="none" stroke="black" points="602,-154 602,-206 834,-206 834,-154 602,-154"/>
</g>
<g id="clust12" class="cluster">
<title>cluster_AuthModule_providers</title>
<polygon fill="none" stroke="black" points="16,-154 16,-206 594,-206 594,-154 16,-154"/>
</g>
<g id="clust13" class="cluster">
<title>cluster_ErrorsModule</title>
<polygon fill="none" stroke="black" stroke-dasharray="1,5" points="1372,-222 1372,-290 1746,-290 1746,-222 1372,-222"/>
</g>
<g id="clust16" class="cluster">
<title>cluster_ErrorsModule_exports</title>
<polygon fill="none" stroke="black" points="1586,-230 1586,-282 1738,-282 1738,-230 1586,-230"/>
</g>
<g id="clust18" class="cluster">
<title>cluster_ErrorsModule_providers</title>
<polygon fill="none" stroke="black" points="1380,-230 1380,-282 1578,-282 1578,-230 1380,-230"/>
</g>
<g id="clust19" class="cluster">
<title>cluster_MyMailerModule</title>
<polygon fill="none" stroke="black" stroke-dasharray="1,5" points="771,-70 771,-138 1031,-138 1031,-70 771,-70"/>
</g>
<g id="clust22" class="cluster">
<title>cluster_MyMailerModule_exports</title>
<polygon fill="none" stroke="black" points="919,-78 919,-130 1023,-130 1023,-78 919,-78"/>
</g>
<g id="clust24" class="cluster">
<title>cluster_MyMailerModule_providers</title>
<polygon fill="none" stroke="black" points="779,-78 779,-130 911,-130 911,-78 779,-78"/>
</g>
<g id="clust25" class="cluster">
<title>cluster_TemplatePlaygroundModule</title>
<polygon fill="none" stroke="black" stroke-dasharray="1,5" points="2323,-70 2323,-290 3140,-290 3140,-70 2323,-70"/>
</g>
<g id="clust26" class="cluster">
<title>cluster_TemplatePlaygroundModule_declarations</title>
<polygon fill="none" stroke="black" points="2918,-78 2918,-130 3132,-130 3132,-78 2918,-78"/>
</g>
<g id="clust30" class="cluster">
<title>cluster_TemplatePlaygroundModule_bootstrap</title>
<polygon fill="none" stroke="black" points="2609,-230 2609,-282 2827,-282 2827,-230 2609,-230"/>
</g>
<g id="clust31" class="cluster">
<title>cluster_TemplatePlaygroundModule_providers</title>
<polygon fill="none" stroke="black" points="2331,-78 2331,-130 2910,-130 2910,-78 2331,-78"/>
</g>
<g id="clust32" class="cluster">
<title>cluster_UsersModule</title>
<polygon fill="none" stroke="black" stroke-dasharray="1,5" points="1754,-222 1754,-290 2315,-290 2315,-222 1754,-222"/>
</g>
<g id="clust35" class="cluster">
<title>cluster_UsersModule_exports</title>
<polygon fill="none" stroke="black" points="2072,-230 2072,-282 2307,-282 2307,-230 2072,-230"/>
</g>
<g id="clust37" class="cluster">
<title>cluster_UsersModule_providers</title>
<polygon fill="none" stroke="black" points="1762,-230 1762,-282 2064,-282 2064,-230 1762,-230"/>
</g>
<!-- AuthModule -->
<g id="node1" class="node">
<title>AuthModule</title>
<polygon fill="#8dd3c7" stroke="black" points="1231.55,-274 1228.55,-278 1207.55,-278 1204.55,-274 1144.45,-274 1144.45,-238 1231.55,-238 1231.55,-274"/>
<text text-anchor="middle" x="1188" y="-251.8" font-family="Times,serif" font-size="14.00">AuthModule</text>
</g>
<!-- AppModule -->
<g id="node4" class="node">
<title>AppModule</title>
<polygon fill="#8dd3c7" stroke="black" points="1260.66,-339 1257.66,-343 1236.66,-343 1233.66,-339 1177.34,-339 1177.34,-303 1260.66,-303 1260.66,-339"/>
<text text-anchor="middle" x="1219" y="-316.8" font-family="Times,serif" font-size="14.00">AppModule</text>
</g>
<!-- AuthModule&#45;&gt;AppModule -->
<g id="edge1" class="edge">
<title>AuthModule&#45;&gt;AppModule</title>
<path fill="none" stroke="black" d="M1204.47,-274.11C1204.47,-274.11 1204.47,-292.99 1204.47,-292.99"/>
<polygon fill="black" stroke="black" points="1200.97,-292.99 1204.47,-302.99 1207.97,-292.99 1200.97,-292.99"/>
</g>
<!-- AuthService  -->
<g id="node7" class="node">
<title>AuthService </title>
<polygon fill="#fb8072" stroke="black" points="825.98,-198 736.02,-198 736.02,-162 825.98,-162 825.98,-198"/>
<text text-anchor="middle" x="781" y="-175.8" font-family="Times,serif" font-size="14.00">AuthService </text>
</g>
<!-- AuthModule&#45;&gt;AuthService  -->
<g id="edge8" class="edge">
<title>AuthModule&#45;&gt;AuthService </title>
<path fill="none" stroke="black" stroke-dasharray="5,2" d="M1202.59,-237.85C1202.59,-224.26 1202.59,-208 1202.59,-208 1202.59,-208 781,-208 781,-208 781,-208 781,-207.02 781,-207.02"/>
<polygon fill="black" stroke="black" points="784.5,-208.21 781,-198.21 777.5,-208.21 784.5,-208.21"/>
</g>
<!-- JwtAuthService  -->
<g id="node8" class="node">
<title>JwtAuthService </title>
<polygon fill="#fb8072" stroke="black" points="718.42,-198 609.58,-198 609.58,-162 718.42,-162 718.42,-198"/>
<text text-anchor="middle" x="664" y="-175.8" font-family="Times,serif" font-size="14.00">JwtAuthService </text>
</g>
<!-- AuthModule&#45;&gt;JwtAuthService  -->
<g id="edge9" class="edge">
<title>AuthModule&#45;&gt;JwtAuthService </title>
<path fill="none" stroke="black" stroke-dasharray="5,2" d="M1192.86,-237.51C1192.86,-225.86 1192.86,-213 1192.86,-213 1192.86,-213 664,-213 664,-213 664,-213 664,-208.04 664,-208.04"/>
<polygon fill="black" stroke="black" points="667.5,-208.04 664,-198.04 660.5,-208.04 667.5,-208.04"/>
</g>
<!-- ErrorsModule -->
<g id="node2" class="node">
<title>ErrorsModule</title>
<polygon fill="#8dd3c7" stroke="black" points="1238.03,-198 1235.03,-202 1214.03,-202 1211.03,-198 1143.97,-198 1143.97,-162 1238.03,-162 1238.03,-198"/>
<text text-anchor="middle" x="1191" y="-175.8" font-family="Times,serif" font-size="14.00">ErrorsModule</text>
</g>
<!-- ErrorsModule&#45;&gt;AuthModule -->
<g id="edge5" class="edge">
<title>ErrorsModule&#45;&gt;AuthModule</title>
<path fill="none" stroke="black" d="M1212.32,-198.01C1212.32,-198.01 1212.32,-227.85 1212.32,-227.85"/>
<polygon fill="black" stroke="black" points="1208.82,-227.85 1212.32,-237.85 1215.82,-227.85 1208.82,-227.85"/>
</g>
<!-- ErrorsModule&#45;&gt;AppModule -->
<g id="edge2" class="edge">
<title>ErrorsModule&#45;&gt;AppModule</title>
<path fill="none" stroke="black" d="M1238.36,-189C1241.1,-189 1242.77,-189 1242.77,-189 1242.77,-189 1242.77,-292.92 1242.77,-292.92"/>
<polygon fill="black" stroke="black" points="1239.27,-292.92 1242.77,-302.92 1246.27,-292.92 1239.27,-292.92"/>
</g>
<!-- ErrorHandlerService  -->
<g id="node13" class="node">
<title>ErrorHandlerService </title>
<polygon fill="#fb8072" stroke="black" points="1730.1,-274 1593.9,-274 1593.9,-238 1730.1,-238 1730.1,-274"/>
<text text-anchor="middle" x="1662" y="-251.8" font-family="Times,serif" font-size="14.00">ErrorHandlerService </text>
</g>
<!-- ErrorsModule&#45;&gt;ErrorHandlerService  -->
<g id="edge14" class="edge">
<title>ErrorsModule&#45;&gt;ErrorHandlerService </title>
<path fill="none" stroke="black" stroke-dasharray="5,2" d="M1222.05,-198.12C1222.05,-200.97 1222.05,-203 1222.05,-203 1222.05,-203 1662,-203 1662,-203 1662,-203 1662,-227.76 1662,-227.76"/>
<polygon fill="black" stroke="black" points="1658.5,-227.76 1662,-237.76 1665.5,-227.76 1658.5,-227.76"/>
</g>
<!-- UsersModule -->
<g id="node3" class="node">
<title>UsersModule</title>
<polygon fill="#8dd3c7" stroke="black" points="1347.92,-198 1344.92,-202 1323.92,-202 1320.92,-198 1256.08,-198 1256.08,-162 1347.92,-162 1347.92,-198"/>
<text text-anchor="middle" x="1302" y="-175.8" font-family="Times,serif" font-size="14.00">UsersModule</text>
</g>
<!-- UsersModule&#45;&gt;AuthModule -->
<g id="edge7" class="edge">
<title>UsersModule&#45;&gt;AuthModule</title>
<path fill="none" stroke="black" d="M1304.27,-198.2C1304.27,-222.36 1304.27,-262 1304.27,-262 1304.27,-262 1241.63,-262 1241.63,-262"/>
<polygon fill="black" stroke="black" points="1241.63,-258.5 1231.63,-262 1241.63,-265.5 1241.63,-258.5"/>
</g>
<!-- UsersModule&#45;&gt;AppModule -->
<g id="edge3" class="edge">
<title>UsersModule&#45;&gt;AppModule</title>
<path fill="none" stroke="black" d="M1255.83,-180C1250.7,-180 1247.28,-180 1247.28,-180 1247.28,-180 1247.28,-292.86 1247.28,-292.86"/>
<polygon fill="black" stroke="black" points="1243.78,-292.86 1247.28,-302.86 1250.78,-292.86 1243.78,-292.86"/>
</g>
<!-- UserRepository  -->
<g id="node23" class="node">
<title>UserRepository </title>
<polygon fill="#fb8072" stroke="black" points="2298.86,-274 2191.14,-274 2191.14,-238 2298.86,-238 2298.86,-274"/>
<text text-anchor="middle" x="2245" y="-251.8" font-family="Times,serif" font-size="14.00">UserRepository </text>
</g>
<!-- UsersModule&#45;&gt;UserRepository  -->
<g id="edge23" class="edge">
<title>UsersModule&#45;&gt;UserRepository </title>
<path fill="none" stroke="black" stroke-dasharray="5,2" d="M1347.8,-168C1536.65,-168 2245,-168 2245,-168 2245,-168 2245,-227.77 2245,-227.77"/>
<polygon fill="black" stroke="black" points="2241.5,-227.77 2245,-237.77 2248.5,-227.77 2241.5,-227.77"/>
</g>
<!-- UsersService  -->
<g id="node24" class="node">
<title>UsersService </title>
<polygon fill="#fb8072" stroke="black" points="2173.85,-274 2080.15,-274 2080.15,-238 2173.85,-238 2173.85,-274"/>
<text text-anchor="middle" x="2127" y="-251.8" font-family="Times,serif" font-size="14.00">UsersService </text>
</g>
<!-- UsersModule&#45;&gt;UsersService  -->
<g id="edge24" class="edge">
<title>UsersModule&#45;&gt;UsersService </title>
<path fill="none" stroke="black" stroke-dasharray="5,2" d="M1347.83,-174C1521.17,-174 2127,-174 2127,-174 2127,-174 2127,-227.8 2127,-227.8"/>
<polygon fill="black" stroke="black" points="2123.5,-227.8 2127,-237.8 2130.5,-227.8 2123.5,-227.8"/>
</g>
<!-- AppService -->
<g id="node5" class="node">
<title>AppService</title>
<ellipse fill="#fdb462" stroke="black" cx="1063" cy="-256" rx="56.74" ry="18"/>
<text text-anchor="middle" x="1063" y="-251.8" font-family="Times,serif" font-size="14.00">AppService</text>
</g>
<!-- AppService&#45;&gt;AppModule -->
<g id="edge4" class="edge">
<title>AppService&#45;&gt;AppModule</title>
<path fill="none" stroke="black" d="M1063,-274.11C1063,-293.34 1063,-321 1063,-321 1063,-321 1167.19,-321 1167.19,-321"/>
<polygon fill="black" stroke="black" points="1167.19,-324.5 1177.19,-321 1167.19,-317.5 1167.19,-324.5"/>
</g>
<!-- MyMailerModule -->
<g id="node6" class="node">
<title>MyMailerModule</title>
<polygon fill="#8dd3c7" stroke="black" points="966.31,-198 963.31,-202 942.31,-202 939.31,-198 849.69,-198 849.69,-162 966.31,-162 966.31,-198"/>
<text text-anchor="middle" x="908" y="-175.8" font-family="Times,serif" font-size="14.00">MyMailerModule</text>
</g>
<!-- MyMailerModule&#45;&gt;AuthModule -->
<g id="edge6" class="edge">
<title>MyMailerModule&#45;&gt;AuthModule</title>
<path fill="none" stroke="black" d="M966.18,-180C1032.46,-180 1131.68,-180 1131.68,-180 1131.68,-180 1131.68,-256 1131.68,-256 1131.68,-256 1134.18,-256 1134.18,-256"/>
<polygon fill="black" stroke="black" points="1134.18,-259.5 1144.18,-256 1134.18,-252.5 1134.18,-259.5"/>
</g>
<!-- MailService  -->
<g id="node15" class="node">
<title>MailService </title>
<polygon fill="#fb8072" stroke="black" points="1014.92,-122 927.08,-122 927.08,-86 1014.92,-86 1014.92,-122"/>
<text text-anchor="middle" x="971" y="-99.8" font-family="Times,serif" font-size="14.00">MailService </text>
</g>
<!-- MyMailerModule&#45;&gt;MailService  -->
<g id="edge16" class="edge">
<title>MyMailerModule&#45;&gt;MailService </title>
<path fill="none" stroke="black" stroke-dasharray="5,2" d="M946.6,-161.99C946.6,-161.99 946.6,-132.15 946.6,-132.15"/>
<polygon fill="black" stroke="black" points="950.1,-132.15 946.6,-122.15 943.1,-132.15 950.1,-132.15"/>
</g>
<!-- AuthService -->
<g id="node9" class="node">
<title>AuthService</title>
<ellipse fill="#fdb462" stroke="black" cx="527" cy="-180" rx="59.11" ry="18"/>
<text text-anchor="middle" x="527" y="-175.8" font-family="Times,serif" font-size="14.00">AuthService</text>
</g>
<!-- AuthService&#45;&gt;AuthModule -->
<g id="edge10" class="edge">
<title>AuthService&#45;&gt;AuthModule</title>
<path fill="none" stroke="black" d="M527,-198.11C527,-207.9 527,-218 527,-218 527,-218 1183.14,-218 1183.14,-218 1183.14,-218 1183.14,-227.89 1183.14,-227.89"/>
<polygon fill="black" stroke="black" points="1179.64,-227.89 1183.14,-237.89 1186.64,-227.89 1179.64,-227.89"/>
</g>
<!-- JwtAuthService -->
<g id="node10" class="node">
<title>JwtAuthService</title>
<ellipse fill="#fdb462" stroke="black" cx="377" cy="-180" rx="72.93" ry="18"/>
<text text-anchor="middle" x="377" y="-175.8" font-family="Times,serif" font-size="14.00">JwtAuthService</text>
</g>
<!-- JwtAuthService&#45;&gt;AuthModule -->
<g id="edge11" class="edge">
<title>JwtAuthService&#45;&gt;AuthModule</title>
<path fill="none" stroke="black" d="M377,-198.49C377,-210.14 377,-223 377,-223 377,-223 1173.41,-223 1173.41,-223 1173.41,-223 1173.41,-227.96 1173.41,-227.96"/>
<polygon fill="black" stroke="black" points="1169.91,-227.96 1173.41,-237.96 1176.91,-227.96 1169.91,-227.96"/>
</g>
<!-- OtpRepository -->
<g id="node11" class="node">
<title>OtpRepository</title>
<ellipse fill="#fdb462" stroke="black" cx="218" cy="-180" rx="67.8" ry="18"/>
<text text-anchor="middle" x="218" y="-175.8" font-family="Times,serif" font-size="14.00">OtpRepository</text>
</g>
<!-- OtpRepository&#45;&gt;AuthModule -->
<g id="edge12" class="edge">
<title>OtpRepository&#45;&gt;AuthModule</title>
<path fill="none" stroke="black" d="M218,-198.15C218,-211.74 218,-228 218,-228 218,-228 1163.68,-228 1163.68,-228 1163.68,-228 1163.68,-228.98 1163.68,-228.98"/>
<polygon fill="black" stroke="black" points="1160.18,-227.79 1163.68,-237.79 1167.18,-227.79 1160.18,-227.79"/>
</g>
<!-- OtpService -->
<g id="node12" class="node">
<title>OtpService</title>
<ellipse fill="#fdb462" stroke="black" cx="78" cy="-180" rx="54.45" ry="18"/>
<text text-anchor="middle" x="78" y="-175.8" font-family="Times,serif" font-size="14.00">OtpService</text>
</g>
<!-- OtpService&#45;&gt;AuthModule -->
<g id="edge13" class="edge">
<title>OtpService&#45;&gt;AuthModule</title>
<path fill="none" stroke="black" d="M78,-198.24C78,-213.57 78,-233 78,-233 78,-233 1153.95,-233 1153.95,-233 1153.95,-233 1153.95,-233.49 1153.95,-233.49"/>
<polygon fill="black" stroke="black" points="1150.45,-227.88 1153.95,-237.88 1157.45,-227.88 1150.45,-227.88"/>
</g>
<!-- ErrorHandlerService -->
<g id="node14" class="node">
<title>ErrorHandlerService</title>
<ellipse fill="#fdb462" stroke="black" cx="1479" cy="-256" rx="91.43" ry="18"/>
<text text-anchor="middle" x="1479" y="-251.8" font-family="Times,serif" font-size="14.00">ErrorHandlerService</text>
</g>
<!-- ErrorHandlerService&#45;&gt;ErrorsModule -->
<g id="edge15" class="edge">
<title>ErrorHandlerService&#45;&gt;ErrorsModule</title>
<path fill="none" stroke="black" d="M1392.45,-250C1328.24,-250 1251.78,-250 1251.78,-250 1251.78,-250 1251.78,-171 1251.78,-171 1251.78,-171 1248.29,-171 1248.29,-171"/>
<polygon fill="black" stroke="black" points="1248.29,-167.5 1238.29,-171 1248.29,-174.5 1248.29,-167.5"/>
</g>
<!-- MailService -->
<g id="node16" class="node">
<title>MailService</title>
<ellipse fill="#fdb462" stroke="black" cx="845" cy="-104" rx="58.46" ry="18"/>
<text text-anchor="middle" x="845" y="-99.8" font-family="Times,serif" font-size="14.00">MailService</text>
</g>
<!-- MailService&#45;&gt;MyMailerModule -->
<g id="edge17" class="edge">
<title>MailService&#45;&gt;MyMailerModule</title>
<path fill="none" stroke="black" d="M876.54,-119.38C876.54,-119.38 876.54,-151.97 876.54,-151.97"/>
<polygon fill="black" stroke="black" points="873.04,-151.97 876.54,-161.97 880.04,-151.97 873.04,-151.97"/>
</g>
<!-- TemplatePlaygroundComponent -->
<g id="node17" class="node">
<title>TemplatePlaygroundComponent</title>
<polygon fill="#ffffb3" stroke="black" points="3124.25,-122 2925.75,-122 2925.75,-86 3124.25,-86 3124.25,-122"/>
<text text-anchor="middle" x="3025" y="-99.8" font-family="Times,serif" font-size="14.00">TemplatePlaygroundComponent</text>
</g>
<!-- TemplatePlaygroundModule -->
<g id="node18" class="node">
<title>TemplatePlaygroundModule</title>
<polygon fill="#8dd3c7" stroke="black" points="2806.47,-198 2803.47,-202 2782.47,-202 2779.47,-198 2629.53,-198 2629.53,-162 2806.47,-162 2806.47,-198"/>
<text text-anchor="middle" x="2718" y="-175.8" font-family="Times,serif" font-size="14.00">TemplatePlaygroundModule</text>
</g>
<!-- TemplatePlaygroundComponent&#45;&gt;TemplatePlaygroundModule -->
<g id="edge18" class="edge">
<title>TemplatePlaygroundComponent&#45;&gt;TemplatePlaygroundModule</title>
<path fill="none" stroke="black" d="M3025,-122.01C3025,-144.49 3025,-180 3025,-180 3025,-180 2816.8,-180 2816.8,-180"/>
<polygon fill="black" stroke="black" points="2816.8,-176.5 2806.8,-180 2816.8,-183.5 2816.8,-176.5"/>
</g>
<!-- TemplatePlaygroundComponent  -->
<g id="node19" class="node">
<title>TemplatePlaygroundComponent </title>
<polygon fill="#80b1d3" stroke="black" points="2819.25,-274 2616.75,-274 2616.75,-238 2819.25,-238 2819.25,-274"/>
<text text-anchor="middle" x="2718" y="-251.8" font-family="Times,serif" font-size="14.00">TemplatePlaygroundComponent </text>
</g>
<!-- TemplatePlaygroundModule&#45;&gt;TemplatePlaygroundComponent  -->
<g id="edge19" class="edge">
<title>TemplatePlaygroundModule&#45;&gt;TemplatePlaygroundComponent </title>
<path fill="none" stroke="black" stroke-dasharray="1,5" d="M2718,-198.01C2718,-198.01 2718,-227.85 2718,-227.85"/>
<polygon fill="black" stroke="black" points="2714.5,-227.85 2718,-237.85 2721.5,-227.85 2714.5,-227.85"/>
</g>
<!-- HbsRenderService -->
<g id="node20" class="node">
<title>HbsRenderService</title>
<ellipse fill="#fdb462" stroke="black" cx="2819" cy="-104" rx="83.37" ry="18"/>
<text text-anchor="middle" x="2819" y="-99.8" font-family="Times,serif" font-size="14.00">HbsRenderService</text>
</g>
<!-- HbsRenderService&#45;&gt;TemplatePlaygroundModule -->
<g id="edge20" class="edge">
<title>HbsRenderService&#45;&gt;TemplatePlaygroundModule</title>
<path fill="none" stroke="black" d="M2771.03,-119.02C2771.03,-119.02 2771.03,-151.8 2771.03,-151.8"/>
<polygon fill="black" stroke="black" points="2767.53,-151.8 2771.03,-161.8 2774.53,-151.8 2767.53,-151.8"/>
</g>
<!-- TemplateEditorService -->
<g id="node21" class="node">
<title>TemplateEditorService</title>
<ellipse fill="#fdb462" stroke="black" cx="2617" cy="-104" rx="100.7" ry="18"/>
<text text-anchor="middle" x="2617" y="-99.8" font-family="Times,serif" font-size="14.00">TemplateEditorService</text>
</g>
<!-- TemplateEditorService&#45;&gt;TemplatePlaygroundModule -->
<g id="edge21" class="edge">
<title>TemplateEditorService&#45;&gt;TemplatePlaygroundModule</title>
<path fill="none" stroke="black" d="M2673.56,-119.02C2673.56,-119.02 2673.56,-151.8 2673.56,-151.8"/>
<polygon fill="black" stroke="black" points="2670.06,-151.8 2673.56,-161.8 2677.06,-151.8 2670.06,-151.8"/>
</g>
<!-- ZipExportService -->
<g id="node22" class="node">
<title>ZipExportService</title>
<ellipse fill="#fdb462" stroke="black" cx="2419" cy="-104" rx="79.87" ry="18"/>
<text text-anchor="middle" x="2419" y="-99.8" font-family="Times,serif" font-size="14.00">ZipExportService</text>
</g>
<!-- ZipExportService&#45;&gt;TemplatePlaygroundModule -->
<g id="edge22" class="edge">
<title>ZipExportService&#45;&gt;TemplatePlaygroundModule</title>
<path fill="none" stroke="black" d="M2419,-122.23C2419,-148.01 2419,-192 2419,-192 2419,-192 2619.5,-192 2619.5,-192"/>
<polygon fill="black" stroke="black" points="2619.5,-195.5 2629.5,-192 2619.5,-188.5 2619.5,-195.5"/>
</g>
<!-- UserRepository -->
<g id="node25" class="node">
<title>UserRepository</title>
<ellipse fill="#fdb462" stroke="black" cx="1984" cy="-256" rx="71.79" ry="18"/>
<text text-anchor="middle" x="1984" y="-251.8" font-family="Times,serif" font-size="14.00">UserRepository</text>
</g>
<!-- UserRepository&#45;&gt;UsersModule -->
<g id="edge25" class="edge">
<title>UserRepository&#45;&gt;UsersModule</title>
<path fill="none" stroke="black" d="M1984,-237.99C1984,-215.51 1984,-180 1984,-180 1984,-180 1357.81,-180 1357.81,-180"/>
<polygon fill="black" stroke="black" points="1357.81,-176.5 1347.81,-180 1357.81,-183.5 1357.81,-176.5"/>
</g>
<!-- UsersService -->
<g id="node26" class="node">
<title>UsersService</title>
<ellipse fill="#fdb462" stroke="black" cx="1832" cy="-256" rx="61.95" ry="18"/>
<text text-anchor="middle" x="1832" y="-251.8" font-family="Times,serif" font-size="14.00">UsersService</text>
</g>
<!-- UsersService&#45;&gt;UsersModule -->
<g id="edge26" class="edge">
<title>UsersService&#45;&gt;UsersModule</title>
<path fill="none" stroke="black" d="M1832,-237.97C1832,-217.23 1832,-186 1832,-186 1832,-186 1358.11,-186 1358.11,-186"/>
<polygon fill="black" stroke="black" points="1358.11,-182.5 1348.11,-186 1358.11,-189.5 1358.11,-182.5"/>
</g>
</g>
</svg>
